<svg xmlns="http://www.w3.org/2000/svg" width="296.074" height="250.96" viewBox="0 0 296.074 250.96">
  <g id="Polygon_6" data-name="Polygon 6" fill="none">
    <path d="M197.5,0a43,43,0,0,1,37.036,21.153l48.654,82.48a43,43,0,0,1,0,43.694l-48.654,82.48A43,43,0,0,1,197.5,250.96H98.577a43,43,0,0,1-37.036-21.153l-48.654-82.48a43,43,0,0,1,0-43.694l48.654-82.48A43,43,0,0,1,98.577,0Z" stroke="none"/>
    <path d="M 98.57734680175781 2 C 91.45741271972656 2 84.42611694335938 3.866424560546875 78.24349975585938 7.397537231445312 C 72.0609130859375 10.92860412597656 66.88087463378906 16.0364990234375 63.26345825195312 22.16899108886719 L 14.60989379882812 104.6491088867188 C 7.03045654296875 117.4981536865234 7.03045654296875 133.4621124267578 14.60989379882812 146.3111572265625 L 63.26345825195312 228.7913055419922 C 66.88087463378906 234.9237670898438 72.0609130859375 240.0316467285156 78.24349975585938 243.5627593994141 C 84.42607116699219 247.0938415527344 91.45738220214844 248.9602966308594 98.57730102539062 248.9602966308594 L 197.4967346191406 248.9602966308594 C 204.6166381835938 248.9602966308594 211.64794921875 247.0938415527344 217.83056640625 243.5627593994141 C 224.0131530761719 240.0316467285156 229.1931762695312 234.9237670898438 232.8106079101562 228.7913055419922 L 281.4641723632812 146.3111572265625 C 289.0436096191406 133.4621124267578 289.0436096191406 117.4981536865234 281.4641723632812 104.6491088867188 L 232.8106079101562 22.16899108886719 C 229.1931762695312 16.0364990234375 224.0131530761719 10.92860412597656 217.83056640625 7.397537231445312 C 211.64794921875 3.866424560546875 204.6166381835938 2 197.4967346191406 2 L 98.57734680175781 2 M 98.57734680175781 0 L 197.4967346191406 0 C 212.7156372070312 0 226.8009185791016 8.044570922851562 234.5332336425781 21.15284729003906 L 283.1867980957031 103.6329498291016 C 291.1381530761719 117.1125335693359 291.1381530761719 133.8477630615234 283.1867980957031 147.3273010253906 L 234.5332336425781 229.8074493408203 C 226.8009185791016 242.9156799316406 212.7156372070312 250.9602661132812 197.4967346191406 250.9602966308594 L 98.57730102539062 250.9602966308594 C 83.35838317871094 250.9602661132812 69.27314758300781 242.9156799316406 61.54084777832031 229.8074493408203 L 12.88726806640625 147.3273010253906 C 4.9359130859375 133.8477630615234 4.9359130859375 117.1125335693359 12.88726806640625 103.6329498291016 L 61.54084777832031 21.15284729003906 C 69.27314758300781 8.044570922851562 83.35841369628906 0 98.57734680175781 0 Z" stroke="none" fill="#8abdff"/>
  </g>
</svg>
