<svg id="_9025852_phone_call_icon" data-name="9025852_phone_call_icon" xmlns="http://www.w3.org/2000/svg" width="23" height="23" viewBox="0 0 23 23">
  <rect id="Rectangle_2072" data-name="Rectangle 2072" width="23" height="23" fill="none"/>
  <path id="Path_10172" data-name="Path 10172" d="M164.416,40a7.1,7.1,0,0,0-5.016,5.016" transform="translate(-155.541 -36.455)" fill="none" stroke="#7d7d7d" stroke-linecap="round" stroke-linejoin="round" stroke-width="1.6"/>
  <path id="Path_10173" data-name="Path 10173" d="M154.113,70.9a4.245,4.245,0,0,0-3.013,3.013" transform="translate(-144.503 -64.617)" fill="none" stroke="#7d7d7d" stroke-linecap="round" stroke-linejoin="round" stroke-width="1.6"/>
  <path id="Path_10174" data-name="Path 10174" d="M51.623,40.529a7.408,7.408,0,0,1-3.456,3.447.709.709,0,0,1-.7-.053l-2.215-1.48a.7.7,0,0,0-.673-.062l-4.147,1.781a.7.7,0,0,0-.425.736,4.254,4.254,0,0,0,4.218,3.713A12.052,12.052,0,0,0,56.275,36.559a4.253,4.253,0,0,0-3.712-4.218.7.7,0,0,0-.736.425l-1.781,4.156a.709.709,0,0,0,.053.665l1.48,2.251A.709.709,0,0,1,51.623,40.529Z" transform="translate(-36.82 -29.47)" fill="none" stroke="#7d7d7d" stroke-linecap="round" stroke-linejoin="round" stroke-width="1.5"/>
</svg>
