<svg xmlns="http://www.w3.org/2000/svg" width="21.061" height="23.402" viewBox="0 0 21.061 23.402">
  <path id="_9055163_bxs_calendar_plus_icon" data-name="9055163_bxs_calendar_plus_icon" d="M5.34,25.4H21.721a2.343,2.343,0,0,0,2.34-2.34V6.68a2.343,2.343,0,0,0-2.34-2.34h-2.34V2h-2.34V4.34H10.02V2H7.68V4.34H5.34A2.343,2.343,0,0,0,3,6.68V23.061A2.343,2.343,0,0,0,5.34,25.4Zm12.871-7.02H14.7v3.51h-2.34v-3.51H8.85v-2.34h3.51v-3.51H14.7v3.51h3.51ZM5.34,7.85H21.721v2.34H5.34Z" transform="translate(-3 -2)" fill="#939393"/>
</svg>
