<svg xmlns="http://www.w3.org/2000/svg" width="18.773" height="14.526" viewBox="0 0 18.773 14.526">
  <path id="_8726460_users_alt_icon" data-name="8726460_users_alt_icon" d="M10.656,10.951a4.2,4.2,0,0,0,1.453-3.179,4.272,4.272,0,1,0-8.545,0,4.2,4.2,0,0,0,1.453,3.179A6.836,6.836,0,0,0,1,17.172a.854.854,0,1,0,1.709,0,5.127,5.127,0,1,1,10.254,0,.854.854,0,1,0,1.709,0,6.836,6.836,0,0,0-4.016-6.221Zm-2.82-.615A2.563,2.563,0,1,1,10.4,7.772,2.563,2.563,0,0,1,7.836,10.336Zm8.323.273a4.272,4.272,0,0,0-3.2-7.109.854.854,0,0,0,0,1.709,2.559,2.559,0,0,1,1.282,4.777.853.853,0,0,0-.043,1.453l.333.222.111.06a5.981,5.981,0,0,1,3.418,5.452.854.854,0,0,0,1.709,0A7.69,7.69,0,0,0,16.158,10.609Z" transform="translate(-1 -3.5)" fill="#000"/>
</svg>
