<svg xmlns="http://www.w3.org/2000/svg" width="18" height="16.859" viewBox="0 0 18 16.859">
  <g id="_icons" transform="translate(-2 -3)">
    <g id="Group_3622" data-name="Group 3622" transform="translate(2 3)">
      <path id="Path_10191" data-name="Path 10191" d="M19.328,6.186a3.282,3.282,0,0,0-2.623-1.312H5.934L5.747,3.75A1.009,1.009,0,0,0,4.81,3H2.937A.885.885,0,0,0,2,3.937a.885.885,0,0,0,.937.937H4.061L4.248,6h0l1.124,6.559h0l.187,1.124a2.828,2.828,0,0,0,2.81,2.436h8.992a.937.937,0,0,0,0-1.874H8.369a1.1,1.1,0,0,1-1.03-.843v-.094h8.8a3.316,3.316,0,0,0,3.185-2.342L19.89,9.09A3.541,3.541,0,0,0,19.328,6.186ZM18.016,8.528h0L17.455,10.4a1.5,1.5,0,0,1-1.311,1.031H6.964L6.215,6.748h10.49a1.335,1.335,0,0,1,1.124.562A1.179,1.179,0,0,1,18.016,8.528Z" transform="translate(-2 -3)" fill="#4e8ffc"/>
      <circle id="Ellipse_293" data-name="Ellipse 293" cx="1.403" cy="1.403" r="1.403" transform="translate(4.684 14.053)" fill="#4e8ffc"/>
      <circle id="Ellipse_294" data-name="Ellipse 294" cx="1.403" cy="1.403" r="1.403" transform="translate(12.179 14.053)" fill="#4e8ffc"/>
    </g>
  </g>
</svg>
