<svg xmlns="http://www.w3.org/2000/svg" width="24.866" height="16.553" viewBox="0 0 24.866 16.553">
  <g id="Group_3729" data-name="Group 3729" transform="translate(-46.118 -385.075)">
    <path id="Path_10204" data-name="Path 10204" d="M54.337,404.738s-3.641,3.137-3.718,3.778,4.443,6.082,9.4,7.354,9.075-2.056,9.075-2.056l-2.459-1.52s-4.292,3.532-7.555.536-1.609-6.214-1.609-6.214Z" transform="translate(-4 -15.095)" fill="#939393" stroke="#939393" stroke-width="1"/>
    <path id="Path_9812" data-name="Path 9812" d="M17.056,14.444a2.61,2.61,0,0,1,.172-.939c-.056,0-.111-.006-.172-.006a3.555,3.555,0,1,0,3.556,3.556c0-.072-.006-.144-.006-.217a2.464,2.464,0,0,1-1.011.217A2.579,2.579,0,0,1,17.056,14.444Z" transform="translate(41.497 376.143)" fill="#939393"/>
    <path id="Path_10206" data-name="Path 10206" d="M0,0,23.73,14.681" transform="translate(46.618 385.5)" fill="none" stroke="#707070" stroke-width="1"/>
    <path id="Path_10205" data-name="Path 10205" d="M65.332,415.944s2.833-2.574,2.91-3.215-4.216-5.857-9.213-7.129a10.278,10.278,0,0,0-8.394,1.333l2.407,1.462a5.378,5.378,0,0,1,6.186-.285,5.556,5.556,0,0,1,2.5,5.616Z" transform="translate(2.241 -19.238)" fill="#939393" stroke="#939393" stroke-width="1"/>
  </g>
</svg>
