<svg xmlns="http://www.w3.org/2000/svg" width="15" height="15.27" viewBox="0 0 15 15.27">
  <path id="_8726183_setting_icon" data-name="8726183_setting_icon" d="M15.631,10.138a.763.763,0,0,1,0-1.008l.977-1.1a.763.763,0,0,0,.092-.893L15.173,4.5a.763.763,0,0,0-.817-.366l-1.435.29a.763.763,0,0,1-.878-.5l-.466-1.4A.763.763,0,0,0,10.852,2H7.8a.763.763,0,0,0-.763.519l-.428,1.4a.763.763,0,0,1-.878.5L4.256,4.13a.763.763,0,0,0-.763.366L1.966,7.137a.763.763,0,0,0,.076.893l.97,1.1a.763.763,0,0,1,0,1.008l-.97,1.1a.763.763,0,0,0-.076.893l1.527,2.641a.763.763,0,0,0,.817.366l1.435-.29a.763.763,0,0,1,.878.5l.466,1.4a.763.763,0,0,0,.763.519h3.054a.763.763,0,0,0,.725-.519l.466-1.4a.763.763,0,0,1,.878-.5l1.435.29a.763.763,0,0,0,.817-.366l1.527-2.641a.763.763,0,0,0-.092-.893Zm-1.137,1.023.611.687-.977,1.695-.9-.183a2.29,2.29,0,0,0-2.634,1.527l-.29.855H8.348l-.275-.87A2.29,2.29,0,0,0,5.44,13.344l-.9.183L3.546,11.84l.611-.687a2.29,2.29,0,0,0,0-3.054l-.611-.687.977-1.679.9.183A2.29,2.29,0,0,0,8.058,4.389l.29-.863H10.3l.29.87a2.29,2.29,0,0,0,2.634,1.527l.9-.183L15.1,7.435l-.611.687a2.29,2.29,0,0,0,0,3.038ZM9.325,6.58a3.054,3.054,0,1,0,3.054,3.054A3.054,3.054,0,0,0,9.325,6.58Zm0,4.58a1.527,1.527,0,1,1,1.527-1.527A1.527,1.527,0,0,1,9.325,11.161Z" transform="translate(-1.857 -1.999)" fill="#000"/>
</svg>
