<svg xmlns="http://www.w3.org/2000/svg" width="16" height="17.778" viewBox="0 0 16 17.778">
  <path id="_8726424_trash_alt_icon" data-name="8726424_trash_alt_icon" d="M9.222,16.222a.889.889,0,0,0,.889-.889V10a.889.889,0,0,0-1.778,0v5.333A.889.889,0,0,0,9.222,16.222ZM18.111,5.556H14.556V4.667A2.667,2.667,0,0,0,11.889,2H10.111A2.667,2.667,0,0,0,7.444,4.667v.889H3.889a.889.889,0,0,0,0,1.778h.889v9.778a2.667,2.667,0,0,0,2.667,2.667h7.111a2.667,2.667,0,0,0,2.667-2.667V7.333h.889a.889.889,0,0,0,0-1.778ZM9.222,4.667a.889.889,0,0,1,.889-.889h1.778a.889.889,0,0,1,.889.889v.889H9.222Zm6.222,12.444a.889.889,0,0,1-.889.889H7.444a.889.889,0,0,1-.889-.889V7.333h8.889Zm-2.667-.889a.889.889,0,0,0,.889-.889V10a.889.889,0,0,0-1.778,0v5.333A.889.889,0,0,0,12.778,16.222Z" transform="translate(-3 -2)" fill="#000"/>
</svg>
