<svg xmlns="http://www.w3.org/2000/svg" width="18.281" height="19.076" viewBox="0 0 18.281 19.076">
  <path id="_8726066_image_plus_icon" data-name="8726066_image_plus_icon" d="M17.539,9.63a.935.935,0,0,0-.914.954v3.224L15.272,12.4a2.475,2.475,0,0,0-3.592,0l-.64.677L8.773,10.7a2.475,2.475,0,0,0-3.592,0L3.828,12.12V6.769a.935.935,0,0,1,.914-.954h7.312a.955.955,0,0,0,0-1.908H4.742A2.8,2.8,0,0,0,2,6.769V18.424a2.607,2.607,0,0,0,2.541,2.652H15.912a2.531,2.531,0,0,0,.731-.114h0a2.6,2.6,0,0,0,1.828-2.528v-7.85A.975.975,0,0,0,18.2,9.9.894.894,0,0,0,17.539,9.63Zm-12.8,9.538a.935.935,0,0,1-.914-.954V14.809L6.47,12.053a.692.692,0,0,1,1.005,0L14.3,19.168Zm11.883-.954a.982.982,0,0,1-.165.515L12.329,14.4l.649-.668a.683.683,0,0,1,1.005,0l2.642,2.776ZM19.367,3.908h-.914V2.954a.915.915,0,1,0-1.828,0v.954h-.914a.955.955,0,0,0,0,1.908h.914v.954a.915.915,0,1,0,1.828,0V5.815h.914a.955.955,0,0,0,0-1.908Z" transform="translate(-2 -2)" fill="#000"/>
</svg>
