<svg xmlns="http://www.w3.org/2000/svg" width="16.5" height="14.573" viewBox="0 0 16.5 14.573">
  <path id="_8725993_heart_sign_icon" data-name="8725993_heart_sign_icon" d="M16.995,4.681a5.194,5.194,0,0,0-6.739-.487,5.178,5.178,0,0,0-6.739,7.829l4.955,5a2.477,2.477,0,0,0,3.5,0l4.955-5a5.178,5.178,0,0,0,.066-7.342ZM15.83,10.842,10.875,15.8a.826.826,0,0,1-1.173,0L4.748,10.842A3.5,3.5,0,1,1,9.7,5.887a.826.826,0,0,0,1.173,0,3.526,3.526,0,0,1,4.955,4.955Z" transform="translate(-1.988 -3.171)" fill="#000"/>
</svg>
