<svg xmlns="http://www.w3.org/2000/svg" width="24.891" height="16" viewBox="0 0 24.891 16">
  <g id="Icon_ionic-ios-eye" data-name="Icon ionic-ios-eye" transform="translate(-2.252 -7.875)" opacity="0.5">
    <path id="Path_9811" data-name="Path 9811" d="M14.684,7.875c-4.467,0-7.989,2.811-12.2,7.406a.878.878,0,0,0-.006,1.183c3.606,3.983,6.783,7.411,12.206,7.411,5.356,0,9.372-4.317,12.228-7.444a.871.871,0,0,0,.028-1.15C24.028,11.753,20,7.875,14.684,7.875Zm.244,12.994a5,5,0,1,1,4.761-4.761A5,5,0,0,1,14.928,20.869Z" fill="#292929"/>
    <path id="Path_9812" data-name="Path 9812" d="M17.056,14.444a2.61,2.61,0,0,1,.172-.939c-.056,0-.111-.006-.172-.006a3.555,3.555,0,1,0,3.556,3.556c0-.072-.006-.144-.006-.217a2.464,2.464,0,0,1-1.011.217A2.579,2.579,0,0,1,17.056,14.444Z" transform="translate(-2.361 -1.181)" fill="#292929"/>
  </g>
</svg>
