<svg xmlns="http://www.w3.org/2000/svg" width="15" height="15" viewBox="0 0 15 15">
  <path id="_8725497_capture_icon" data-name="8725497_capture_icon" d="M2.75,7.25A.75.75,0,0,0,3.5,6.5V4.25a.75.75,0,0,1,.75-.75H6.5A.75.75,0,0,0,6.5,2H4.25A2.25,2.25,0,0,0,2,4.25V6.5A.75.75,0,0,0,2.75,7.25ZM6.5,15.5H4.25a.75.75,0,0,1-.75-.75V12.5a.75.75,0,0,0-1.5,0v2.25A2.25,2.25,0,0,0,4.25,17H6.5a.75.75,0,1,0,0-1.5Zm3-9a3,3,0,1,0,3,3A3,3,0,0,0,9.5,6.5Zm0,4.5A1.5,1.5,0,1,1,11,9.5,1.5,1.5,0,0,1,9.5,11Zm5.25-9H12.5a.75.75,0,0,0,0,1.5h2.25a.75.75,0,0,1,.75.75V6.5a.75.75,0,1,0,1.5,0V4.25A2.25,2.25,0,0,0,14.75,2Zm1.5,9.75a.75.75,0,0,0-.75.75v2.25a.75.75,0,0,1-.75.75H12.5a.75.75,0,1,0,0,1.5h2.25A2.25,2.25,0,0,0,17,14.75V12.5A.75.75,0,0,0,16.25,11.75Z" transform="translate(-2 -2)" fill="#000"/>
</svg>
